<?xml version="1.0" encoding="utf-8"?>
<!-- Generator: Adobe Illustrator 16.0.1, SVG Export Plug-In . SVG Version: 6.00 Build 0)  -->
<!DOCTYPE svg PUBLIC "-//W3C//DTD SVG 1.1//EN" "http://www.w3.org/Graphics/SVG/1.1/DTD/svg11.dtd">
<svg version="1.1" id="Layer_1" xmlns="http://www.w3.org/2000/svg" xmlns:xlink="http://www.w3.org/1999/xlink" x="0px" y="0px"
	 width="42px" height="42px" viewBox="0 0 42 42" enable-background="new 0 0 42 42" xml:space="preserve">
<path fill="#59379E" d="M40.5,31.5v-18c0,0-18.2,12.7-19.97,13.359C18.79,26.23,0.5,13.5,0.5,13.5v18c0,2.5,0.53,3,3,3h34
	C40.029,34.5,40.5,34.061,40.5,31.5z M40.471,9.971c0-1.821-0.531-2.471-2.971-2.471h-34c-2.51,0-3,0.78-3,2.6l0.03,0.28
	c0,0,18.069,12.44,20,13.12C22.57,22.71,40.5,10.1,40.5,10.1L40.471,9.971z"/>
</svg>
