<?xml version="1.0" encoding="utf-8"?>
<!-- Generator: Adobe Illustrator 16.0.1, SVG Export Plug-In . SVG Version: 6.00 Build 0)  -->
<!DOCTYPE svg PUBLIC "-//W3C//DTD SVG 1.1//EN" "http://www.w3.org/Graphics/SVG/1.1/DTD/svg11.dtd">
<svg version="1.1" id="Layer_1" xmlns="http://www.w3.org/2000/svg" xmlns:xlink="http://www.w3.org/1999/xlink" x="0px" y="0px"
	 width="42px" height="42px" viewBox="0 0 42 42" enable-background="new 0 0 42 42" xml:space="preserve">
<path fill="#59379E" d="M33,13.924C33,6.893,27.594,1,20.51,1S8,6.897,8,13.93C8,16.25,8.324,18,9.423,20H9.402l10.695,20.621
	c0.402,0.551,0.824-0.032,0.824-0.032C20.56,41.13,31.616,20,31.616,20h-0.009C32.695,18,33,16.246,33,13.924z M14.751,13.528
	c0-3.317,2.579-6.004,5.759-6.004s5.76,2.687,5.76,6.004c0,3.317-2.58,6.005-5.76,6.005S14.751,16.846,14.751,13.528z"/>
</svg>
